<svg width="32" height="32" viewBox="0 0 32 32" fill="none" xmlns="http://www.w3.org/2000/svg">
<path d="M3.67335 19.6213L4.36268 22.1973C5.16801 25.204 5.57201 26.708 6.48534 27.6827C7.20621 28.4517 8.1388 28.9899 9.16534 29.2293C10.4667 29.5333 11.9707 29.1307 14.9787 28.3253C17.984 27.52 19.488 27.1173 20.4627 26.204C20.5427 26.128 20.6227 26.0493 20.6973 25.9693C20.2433 25.9281 19.7919 25.8613 19.3453 25.7693C18.4173 25.5853 17.3147 25.2893 16.0107 24.94L15.868 24.9013L15.8347 24.8933C14.416 24.512 13.2307 24.1947 12.284 23.8533C11.288 23.4933 10.384 23.0493 9.61468 22.3293C8.55644 21.3379 7.8159 20.0549 7.48668 18.6427C7.24668 17.6173 7.31601 16.612 7.50268 15.5707C7.68134 14.572 8.00134 13.3747 8.38534 11.9413L9.09868 9.28266L9.12268 9.18933C6.56268 9.87866 5.21468 10.2867 4.31601 11.128C3.546 11.8494 3.00728 12.783 2.76801 13.8107C2.46401 15.1107 2.86668 16.6147 3.67335 19.6213Z" fill="#319675"/>
<path fill-rule="evenodd" clip-rule="evenodd" d="M27.7733 14.2867L27.0827 16.8627C26.276 19.8693 25.8733 21.3733 24.96 22.348C24.2393 23.1176 23.3067 23.6562 22.28 23.896C22.1507 23.9267 22.02 23.9493 21.8867 23.9653C20.6667 24.116 19.1773 23.7173 16.468 22.992C13.4613 22.1853 11.9573 21.7827 10.9827 20.8693C10.2129 20.1483 9.67418 19.2152 9.43467 18.188C9.13067 16.8867 9.53333 15.384 10.34 12.3773L11.0293 9.80133L11.3547 8.59466C11.9613 6.37333 12.3693 5.15066 13.152 4.31466C13.8729 3.5456 14.8055 3.00738 15.832 2.768C17.1333 2.464 18.6373 2.86666 21.6453 3.67333C24.6507 4.47866 26.1547 4.88133 27.1293 5.79333C27.8993 6.51474 28.4381 7.44833 28.6773 8.476C28.9813 9.77733 28.5787 11.28 27.7733 14.2867ZM14.736 13.0733C14.77 12.9465 14.8287 12.8275 14.9087 12.7234C14.9887 12.6192 15.0885 12.5318 15.2023 12.4661C15.3161 12.4005 15.4417 12.358 15.5719 12.3409C15.7021 12.3238 15.8345 12.3326 15.9613 12.3667L22.4013 14.0933C22.5315 14.1242 22.6542 14.1809 22.7621 14.26C22.87 14.3392 22.9609 14.4392 23.0295 14.5541C23.098 14.6691 23.1428 14.7966 23.1612 14.9291C23.1795 15.0617 23.1711 15.1966 23.1364 15.3258C23.1017 15.455 23.0414 15.576 22.959 15.6815C22.8767 15.787 22.7741 15.8749 22.6572 15.94C22.5403 16.0051 22.4115 16.0461 22.2784 16.0605C22.1454 16.0749 22.0108 16.0625 21.8827 16.024L15.4427 14.2987C15.1867 14.2299 14.9686 14.0624 14.8361 13.8329C14.7036 13.6034 14.6676 13.3293 14.736 13.0733ZM13.7013 16.9373C13.7701 16.6814 13.9376 16.4632 14.1671 16.3307C14.3966 16.1982 14.6693 16.1622 14.9253 16.2307L18.7893 17.2667C18.9202 17.2969 19.0436 17.3531 19.1522 17.432C19.2608 17.5109 19.3524 17.6109 19.4216 17.726C19.4908 17.8411 19.536 17.9689 19.5547 18.1019C19.5734 18.2348 19.5651 18.3702 19.5304 18.4999C19.4956 18.6296 19.4351 18.7509 19.3524 18.8567C19.2698 18.9625 19.1667 19.0506 19.0492 19.1157C18.9318 19.1808 18.8024 19.2216 18.6689 19.2356C18.5354 19.2496 18.4004 19.2366 18.272 19.1973L14.408 18.1627C14.2811 18.1286 14.1622 18.0699 14.058 17.9899C13.9538 17.9099 13.8664 17.8102 13.8008 17.6964C13.7352 17.5826 13.6926 17.457 13.6756 17.3268C13.6585 17.1965 13.6673 17.0642 13.7013 16.9373Z" fill="#00C584"/>
</svg>
