<svg width="163" height="32" viewBox="0 0 163 32" fill="none" xmlns="http://www.w3.org/2000/svg">
<path d="M3.67334 19.6213L4.36268 22.1973C5.16801 25.204 5.57201 26.708 6.48534 27.6827C7.20621 28.4517 8.1388 28.9899 9.16534 29.2293C10.4667 29.5333 11.9707 29.1307 14.9787 28.3253C17.984 27.52 19.488 27.1173 20.4627 26.204C20.5427 26.128 20.6227 26.0493 20.6973 25.9693C20.2433 25.9281 19.7919 25.8613 19.3453 25.7693C18.4173 25.5853 17.3147 25.2893 16.0107 24.94L15.868 24.9013L15.8347 24.8933C14.416 24.512 13.2307 24.1947 12.284 23.8533C11.288 23.4933 10.384 23.0493 9.61468 22.3293C8.55644 21.3379 7.8159 20.0549 7.48668 18.6427C7.24668 17.6173 7.31601 16.612 7.50268 15.5707C7.68134 14.572 8.00134 13.3747 8.38534 11.9413L9.09868 9.28266L9.12268 9.18933C6.56268 9.87866 5.21468 10.2867 4.31601 11.128C3.546 11.8494 3.00728 12.783 2.76801 13.8107C2.46401 15.1107 2.86668 16.6147 3.67334 19.6213Z" fill="#319675"/>
<path fill-rule="evenodd" clip-rule="evenodd" d="M27.7733 14.2867L27.0827 16.8627C26.276 19.8693 25.8734 21.3733 24.96 22.348C24.2393 23.1176 23.3067 23.6562 22.28 23.896C22.1507 23.9267 22.02 23.9493 21.8867 23.9653C20.6667 24.116 19.1774 23.7173 16.468 22.992C13.4613 22.1853 11.9574 21.7827 10.9827 20.8693C10.2129 20.1483 9.6742 19.2152 9.43468 18.188C9.13068 16.8867 9.53335 15.384 10.34 12.3773L11.0294 9.80133L11.3547 8.59466C11.9613 6.37333 12.3694 5.15066 13.152 4.31466C13.8729 3.5456 14.8055 3.00738 15.832 2.768C17.1333 2.464 18.6373 2.86666 21.6453 3.67333C24.6507 4.47866 26.1547 4.88133 27.1294 5.79333C27.8994 6.51474 28.4381 7.44833 28.6773 8.476C28.9813 9.77733 28.5787 11.28 27.7733 14.2867ZM14.736 13.0733C14.77 12.9465 14.8287 12.8275 14.9087 12.7234C14.9888 12.6192 15.0885 12.5318 15.2023 12.4661C15.3161 12.4005 15.4417 12.358 15.5719 12.3409C15.7022 12.3238 15.8345 12.3326 15.9613 12.3667L22.4014 14.0933C22.5316 14.1242 22.6542 14.1809 22.7621 14.26C22.87 14.3392 22.9609 14.4392 23.0295 14.5541C23.098 14.6691 23.1428 14.7966 23.1612 14.9291C23.1795 15.0617 23.1711 15.1966 23.1364 15.3258C23.1017 15.455 23.0414 15.576 22.9591 15.6815C22.8767 15.787 22.7741 15.8749 22.6572 15.94C22.5403 16.0051 22.4115 16.0461 22.2784 16.0605C22.1454 16.0749 22.0108 16.0625 21.8827 16.024L15.4427 14.2987C15.1868 14.2299 14.9686 14.0624 14.8361 13.8329C14.7036 13.6034 14.6676 13.3293 14.736 13.0733ZM13.7014 16.9373C13.7701 16.6814 13.9376 16.4632 14.1671 16.3307C14.3966 16.1982 14.6693 16.1622 14.9254 16.2307L18.7894 17.2667C18.9202 17.2969 19.0436 17.3531 19.1522 17.432C19.2608 17.5109 19.3525 17.6109 19.4216 17.726C19.4908 17.8411 19.536 17.9689 19.5547 18.1019C19.5734 18.2348 19.5651 18.3702 19.5304 18.4999C19.4956 18.6296 19.4351 18.7509 19.3525 18.8567C19.2698 18.9625 19.1667 19.0506 19.0492 19.1157C18.9318 19.1808 18.8025 19.2215 18.6689 19.2356C18.5354 19.2496 18.4004 19.2366 18.272 19.1973L14.408 18.1627C14.2811 18.1286 14.1622 18.0699 14.058 17.9899C13.9539 17.9099 13.8665 17.8102 13.8008 17.6964C13.7352 17.5826 13.6926 17.457 13.6756 17.3268C13.6585 17.1965 13.6673 17.0642 13.7014 16.9373Z" fill="#00C584"/>
<path d="M37.957 22.4629V19.3379C38.5234 19.8132 39.1387 20.1712 39.8027 20.4121C40.4668 20.6465 41.1374 20.7637 41.8145 20.7637C42.2116 20.7637 42.5566 20.7279 42.8496 20.6562C43.1491 20.5846 43.3965 20.487 43.5918 20.3633C43.7936 20.2331 43.9434 20.0833 44.041 19.9141C44.1387 19.7383 44.1875 19.5495 44.1875 19.3477C44.1875 19.0742 44.1094 18.8301 43.9531 18.6152C43.7969 18.4004 43.582 18.2018 43.3086 18.0195C43.0417 17.8372 42.7227 17.6615 42.3516 17.4922C41.9805 17.3229 41.5801 17.1504 41.1504 16.9746C40.0566 16.5189 39.2396 15.9622 38.6992 15.3047C38.1654 14.6471 37.8984 13.8529 37.8984 12.9219C37.8984 12.1927 38.0449 11.5677 38.3379 11.0469C38.6309 10.5195 39.028 10.0866 39.5293 9.74805C40.0371 9.40951 40.623 9.16211 41.2871 9.00586C41.9512 8.8431 42.6543 8.76172 43.3965 8.76172C44.1257 8.76172 44.7702 8.80729 45.3301 8.89844C45.8965 8.98307 46.4173 9.11654 46.8926 9.29883V12.2188C46.6582 12.056 46.401 11.9128 46.1211 11.7891C45.8477 11.6654 45.5645 11.5645 45.2715 11.4863C44.9785 11.4017 44.6855 11.3398 44.3926 11.3008C44.1061 11.2617 43.8327 11.2422 43.5723 11.2422C43.2142 11.2422 42.8887 11.278 42.5957 11.3496C42.3027 11.4147 42.0553 11.5091 41.8535 11.6328C41.6517 11.7565 41.4954 11.9062 41.3848 12.082C41.2741 12.2513 41.2188 12.4434 41.2188 12.6582C41.2188 12.8926 41.2806 13.1042 41.4043 13.293C41.528 13.4753 41.7038 13.651 41.9316 13.8203C42.1595 13.9831 42.4362 14.1458 42.7617 14.3086C43.0872 14.4648 43.4551 14.6276 43.8652 14.7969C44.4251 15.0312 44.9264 15.2819 45.3691 15.5488C45.8184 15.8092 46.2025 16.1055 46.5215 16.4375C46.8405 16.7695 47.0846 17.1504 47.2539 17.5801C47.4232 18.0033 47.5078 18.498 47.5078 19.0645C47.5078 19.8457 47.3581 20.5033 47.0586 21.0371C46.7656 21.5645 46.3652 21.9941 45.8574 22.3262C45.3496 22.6517 44.7572 22.8861 44.0801 23.0293C43.4095 23.1725 42.6999 23.2441 41.9512 23.2441C41.1829 23.2441 40.4505 23.179 39.7539 23.0488C39.0638 22.9186 38.4648 22.7233 37.957 22.4629ZM51.0723 11.418C50.5514 11.418 50.125 11.265 49.793 10.959C49.4609 10.6465 49.2949 10.2656 49.2949 9.81641C49.2949 9.35417 49.4609 8.97656 49.793 8.68359C50.125 8.39062 50.5514 8.24414 51.0723 8.24414C51.5996 8.24414 52.026 8.39062 52.3516 8.68359C52.6836 8.97656 52.8496 9.35417 52.8496 9.81641C52.8496 10.2852 52.6836 10.6693 52.3516 10.9688C52.026 11.2682 51.5996 11.418 51.0723 11.418ZM52.5957 23H49.5098V13H52.5957V23ZM71.0723 23H67.9961V17.2969C67.9961 15.8451 67.4622 15.1191 66.3945 15.1191C65.8867 15.1191 65.4733 15.3372 65.1543 15.7734C64.8353 16.2096 64.6758 16.7533 64.6758 17.4043V23H61.5898V17.2383C61.5898 15.8255 61.0658 15.1191 60.0176 15.1191C59.4902 15.1191 59.0671 15.3275 58.748 15.7441C58.4355 16.1608 58.2793 16.7272 58.2793 17.4434V23H55.1934V13H58.2793V14.5625H58.3184C58.6374 14.0286 59.0833 13.5957 59.6562 13.2637C60.2357 12.9251 60.8672 12.7559 61.5508 12.7559C62.9635 12.7559 63.9303 13.3776 64.4512 14.6211C65.2129 13.3776 66.3327 12.7559 67.8105 12.7559C69.985 12.7559 71.0723 14.097 71.0723 16.7793V23ZM76.6387 21.8379H76.5996V27.5996H73.5137V13H76.5996V14.5039H76.6387C77.4004 13.3385 78.4714 12.7559 79.8516 12.7559C81.1471 12.7559 82.1465 13.2018 82.8496 14.0938C83.5592 14.9792 83.9141 16.1868 83.9141 17.7168C83.9141 19.3835 83.5007 20.7214 82.6738 21.7305C81.8535 22.7396 80.7598 23.2441 79.3926 23.2441C78.1882 23.2441 77.2702 22.7754 76.6387 21.8379ZM76.5508 17.7363V18.5371C76.5508 19.2272 76.7331 19.7904 77.0977 20.2266C77.4622 20.6628 77.9408 20.8809 78.5332 20.8809C79.2363 20.8809 79.7799 20.6107 80.1641 20.0703C80.5547 19.5234 80.75 18.752 80.75 17.7559C80.75 15.998 80.0664 15.1191 78.6992 15.1191C78.0677 15.1191 77.5501 15.36 77.1465 15.8418C76.7493 16.3171 76.5508 16.9486 76.5508 17.7363ZM89.002 23H85.916V8.19531H89.002V23ZM100.584 18.8789H94.0605C94.1647 20.3307 95.0794 21.0566 96.8047 21.0566C97.9049 21.0566 98.8717 20.7962 99.7051 20.2754V22.502C98.7806 22.9967 97.5794 23.2441 96.1016 23.2441C94.487 23.2441 93.2337 22.7982 92.3418 21.9062C91.4499 21.0078 91.0039 19.7578 91.0039 18.1562C91.0039 16.4961 91.4857 15.181 92.4492 14.2109C93.4128 13.2409 94.5977 12.7559 96.0039 12.7559C97.4622 12.7559 98.5885 13.1888 99.3828 14.0547C100.184 14.9206 100.584 16.0957 100.584 17.5801V18.8789ZM97.7227 16.9844C97.7227 15.5521 97.1432 14.8359 95.9844 14.8359C95.4896 14.8359 95.0599 15.041 94.6953 15.4512C94.3372 15.8613 94.1191 16.3724 94.041 16.9844H97.7227ZM120.848 23H117.664L111.893 14.2012C111.554 13.6868 111.32 13.2995 111.189 13.0391H111.15C111.202 13.5339 111.229 14.2891 111.229 15.3047V23H108.25V8.99609H111.648L117.205 17.5215C117.459 17.9056 117.693 18.2865 117.908 18.6641H117.947C117.895 18.3385 117.869 17.6973 117.869 16.7402V8.99609H120.848V23ZM128.514 23.2441C126.847 23.2441 125.535 22.7786 124.578 21.8477C123.628 20.9102 123.152 19.6406 123.152 18.0391C123.152 16.3854 123.647 15.0931 124.637 14.1621C125.626 13.2246 126.964 12.7559 128.65 12.7559C130.311 12.7559 131.613 13.2246 132.557 14.1621C133.501 15.0931 133.973 16.3268 133.973 17.8633C133.973 19.5234 133.484 20.8353 132.508 21.7988C131.538 22.7624 130.206 23.2441 128.514 23.2441ZM128.592 15.1191C127.863 15.1191 127.296 15.3698 126.893 15.8711C126.489 16.3724 126.287 17.082 126.287 18C126.287 19.9206 127.062 20.8809 128.611 20.8809C130.089 20.8809 130.828 19.8945 130.828 17.9219C130.828 16.0534 130.083 15.1191 128.592 15.1191ZM142.02 22.8828C141.564 23.1237 140.877 23.2441 139.959 23.2441C137.785 23.2441 136.697 22.1146 136.697 19.8555V15.2754H135.076V13H136.697V10.8418L139.773 9.96289V13H142.02V15.2754H139.773V19.3184C139.773 20.36 140.187 20.8809 141.014 20.8809C141.339 20.8809 141.674 20.7865 142.02 20.5977V22.8828ZM152.674 18.8789H146.15C146.255 20.3307 147.169 21.0566 148.895 21.0566C149.995 21.0566 150.962 20.7962 151.795 20.2754V22.502C150.87 22.9967 149.669 23.2441 148.191 23.2441C146.577 23.2441 145.324 22.7982 144.432 21.9062C143.54 21.0078 143.094 19.7578 143.094 18.1562C143.094 16.4961 143.576 15.181 144.539 14.2109C145.503 13.2409 146.688 12.7559 148.094 12.7559C149.552 12.7559 150.678 13.1888 151.473 14.0547C152.273 14.9206 152.674 16.0957 152.674 17.5801V18.8789ZM149.812 16.9844C149.812 15.5521 149.233 14.8359 148.074 14.8359C147.579 14.8359 147.15 15.041 146.785 15.4512C146.427 15.8613 146.209 16.3724 146.131 16.9844H149.812ZM153.855 22.7363V20.2363C154.363 20.5423 154.868 20.7702 155.369 20.9199C155.877 21.0697 156.355 21.1445 156.805 21.1445C157.352 21.1445 157.781 21.0697 158.094 20.9199C158.413 20.7702 158.572 20.5423 158.572 20.2363C158.572 20.041 158.501 19.8783 158.357 19.748C158.214 19.6178 158.029 19.5039 157.801 19.4062C157.579 19.3086 157.335 19.2207 157.068 19.1426C156.801 19.0645 156.544 18.9766 156.297 18.8789C155.9 18.7292 155.548 18.5697 155.242 18.4004C154.943 18.2246 154.689 18.0228 154.48 17.7949C154.279 17.5671 154.122 17.3034 154.012 17.0039C153.908 16.7044 153.855 16.3496 153.855 15.9395C153.855 15.3796 153.976 14.8978 154.217 14.4941C154.464 14.0905 154.79 13.7617 155.193 13.5078C155.604 13.2474 156.069 13.0586 156.59 12.9414C157.117 12.8177 157.664 12.7559 158.23 12.7559C158.673 12.7559 159.122 12.7917 159.578 12.8633C160.034 12.9284 160.483 13.026 160.926 13.1562V15.5391C160.535 15.3112 160.115 15.1419 159.666 15.0312C159.223 14.9141 158.787 14.8555 158.357 14.8555C158.156 14.8555 157.964 14.875 157.781 14.9141C157.605 14.9466 157.449 14.9987 157.312 15.0703C157.176 15.1354 157.068 15.2233 156.99 15.334C156.912 15.4382 156.873 15.5586 156.873 15.6953C156.873 15.8776 156.932 16.0339 157.049 16.1641C157.166 16.2943 157.319 16.4082 157.508 16.5059C157.697 16.597 157.905 16.6816 158.133 16.7598C158.367 16.8314 158.598 16.9062 158.826 16.9844C159.236 17.1276 159.607 17.2839 159.939 17.4531C160.271 17.6224 160.555 17.821 160.789 18.0488C161.03 18.2767 161.212 18.5436 161.336 18.8496C161.466 19.1556 161.531 19.5202 161.531 19.9434C161.531 20.5358 161.401 21.0436 161.141 21.4668C160.887 21.8835 160.545 22.2253 160.115 22.4922C159.692 22.7526 159.201 22.9414 158.641 23.0586C158.087 23.1823 157.511 23.2441 156.912 23.2441C155.812 23.2441 154.793 23.0749 153.855 22.7363Z" fill="#0E6E4E"/>
</svg>
